<svg xmlns="http://www.w3.org/2000/svg" xmlns:xlink="http://www.w3.org/1999/xlink" width="500" zoomAndPan="magnify" viewBox="0 0 375 374.999991" height="500" preserveAspectRatio="xMidYMid meet" version="1.0"><defs><clipPath id="a72018c926"><path d="M 114.789062 111.035156 L 260.289062 111.035156 L 260.289062 264 L 114.789062 264 Z M 114.789062 111.035156 " clip-rule="nonzero"/></clipPath></defs><rect x="-37.5" width="450" fill="#ffffff" y="-37.499999" height="449.999989" fill-opacity="1"/><rect x="-37.5" width="450" fill="#ffffff" y="-37.499999" height="449.999989" fill-opacity="1"/><g clip-path="url(#a72018c926)"><path fill="#7113bc" d="M 169.773438 134.773438 C 220.070312 134.773438 256.804688 123.507812 256.804688 170.089844 L 166.148438 170.089844 C 120.289062 170.089844 111.4375 137.589844 115.859375 111.035156 C 119.027344 127.085938 143.488281 134.773438 169.773438 134.773438 Z M 259.125 227.429688 C 263.546875 200.871094 254.695312 180.261719 208.824219 180.261719 L 135.0625 180.261719 C 135.0625 226.847656 193.925781 215.59375 205.210938 215.59375 C 231.503906 215.59375 251.75 209.898438 259.132812 227.429688 Z M 180.546875 225.722656 L 169.234375 225.722656 C 168.351562 225.722656 167.472656 225.765625 166.59375 225.851562 C 165.71875 225.9375 164.847656 226.066406 163.980469 226.238281 C 163.117188 226.410156 162.261719 226.625 161.417969 226.882812 C 160.574219 227.136719 159.746094 227.433594 158.929688 227.769531 C 158.117188 228.109375 157.320312 228.484375 156.542969 228.902344 C 155.765625 229.316406 155.011719 229.769531 154.277344 230.257812 C 153.542969 230.75 152.835938 231.273438 152.15625 231.832031 C 151.472656 232.390625 150.820312 232.984375 150.199219 233.605469 C 149.574219 234.230469 148.984375 234.882812 148.421875 235.566406 C 147.863281 236.246094 147.339844 236.953125 146.847656 237.6875 C 146.359375 238.417969 145.90625 239.175781 145.492188 239.953125 C 145.074219 240.730469 144.699219 241.527344 144.363281 242.339844 C 144.023438 243.15625 143.726562 243.984375 143.472656 244.828125 C 143.214844 245.671875 143 246.527344 142.828125 247.390625 C 142.65625 248.253906 142.527344 249.125 142.441406 250.003906 C 142.355469 250.882812 142.3125 251.761719 142.3125 252.644531 L 142.3125 263.964844 L 180.554688 263.964844 Z M 180.546875 225.722656 " fill-opacity="1" fill-rule="nonzero"/></g></svg>